PathFileType	4	(X/Y/Z)	D:\TRACE\spot_10-12-23\spot_arm_motion_2_5-v60.trc
DataRate	CameraRate	NumFrames	NumMarkers	Units	OrigDataRate	OrigDataStartFrame	OrigNumFrames
100.00	100.00	      39	9	mm	100.00	2626	      7000
Frame#	Time	front left toe			Front right toe			aft left toe			aft right toe			Arm			FL body			FR body			AL Body			AR Body			
		X1	Y1	Z1	X2	Y2	Z2	X3	Y3	Z3	X4	Y4	Z4	X5	Y5	Z5	X6	Y6	Z6	X7	Y7	Z7	X8	Y8	Z8	X9	Y9	Z9	

2626	26.250	-266.87772	24.07129	-1.63576	233.06418	22.54144	13.37613	-265.81750	14.45640	600.43335	206.87195	5.64603	609.44775	27.65596	819.01587	-709.08789	-63.64164	570.09943	-42.92713	89.01333	575.28815	-41.06647	-76.42250	515.07214	839.09991	74.39071	514.18414	843.29956	
2627	26.260	-268.13257	24.02530	-2.00421	232.12863	22.40020	13.25679	-266.78418	15.67278	600.22809	205.91858	6.87998	609.23016	26.43684	818.40851	-709.90912	-64.92508	570.13708	-43.36686	87.78951	575.64056	-41.18261	-77.92667	516.44946	838.59601	73.31153	515.59930	843.22083	
2628	26.270	-268.86142	23.70888	-2.20502	230.09183	21.88058	12.86349	-268.07465	17.18327	599.75720	204.88788	8.26972	608.98273	25.57587	817.62878	-710.39038	-66.14545	570.19177	-43.58994	86.77403	575.52026	-41.45987	-79.20060	517.73749	838.72644	70.12730	517.47675	842.63074	
2629	26.280	-270.15833	23.85592	-2.79753	229.56572	22.08340	12.53053	-269.01715	18.16608	599.50061	203.77155	9.17126	608.77435	24.58064	816.81061	-711.12244	-67.51983	570.04846	-44.18820	85.32896	575.50854	-41.87362	-80.53068	518.91022	838.48914	69.14088	518.59503	842.46936	
2630	26.290	-271.24896	23.81835	-2.97068	227.77838	22.19530	12.19918	-270.01062	19.29161	599.27283	202.75517	10.52625	608.36066	23.48757	815.90344	-711.83374	-68.61025	570.00525	-44.21581	83.98117	575.66687	-42.57428	-82.00933	520.16254	838.12878	68.21108	519.63495	842.04272	
2631	26.300	-272.32626	23.68036	-3.23828	226.80125	22.04310	11.87796	-271.35202	20.58050	598.91083	201.78104	12.00591	608.20782	23.01227	814.91058	-712.47473	-70.10892	570.00281	-44.74468	82.56107	575.82532	-42.95181	-83.48878	521.29236	838.01843	66.84206	521.10706	841.95374	
2632	26.310	-273.26733	23.56147	-3.68364	225.94972	22.04382	11.45186	-272.44885	21.63989	598.57709	200.52701	13.11195	607.79285	21.39668	813.93652	-713.21820	-71.26654	569.89514	-45.16459	81.57756	575.72113	-43.12817	-84.06459	522.37909	837.26190	66.02675	522.19421	841.45428	
2633	26.320	-274.52112	23.43511	-4.02281	224.06656	21.10223	11.45063	-273.50885	22.94195	598.25854	199.48801	14.19674	607.53564	20.70240	812.72742	-713.95990	-72.54941	569.71710	-45.48083	80.15166	575.48071	-43.51168	-86.10176	523.84760	836.99988	64.70794	523.46649	841.24048	
2634	26.330	-275.42676	23.30044	-4.27473	223.05696	21.00331	11.01480	-274.34604	24.05348	597.90692	198.45102	15.76427	607.19836	19.85944	811.51288	-714.80139	-73.96885	569.60480	-45.76495	79.09429	575.39447	-43.72448	-87.44548	525.03375	836.96405	63.66628	524.99323	841.39355	
2635	26.340	-276.67111	23.47000	-4.77152	222.11055	21.00386	10.86975	-275.56168	25.33560	597.51898	197.35327	16.85891	606.87109	18.08524	810.20667	-715.39148	-75.14304	569.45862	-45.99909	77.76239	575.54749	-44.14174	-88.69903	526.55042	836.56683	61.92538	526.50006	841.06958	
2636	26.350	-277.34949	23.17552	-4.92766	220.90756	20.71887	10.54083	-276.56238	26.54547	597.28351	196.30859	18.22889	606.50220	17.88500	808.97388	-716.08411	-76.40812	569.35876	-46.55179	76.13753	575.45172	-44.70525	-90.78597	528.19183	836.01459	60.47833	527.87939	840.87366	
2637	26.360	-278.37543	22.93013	-5.29423	219.99788	21.29366	10.00721	-277.29745	27.56503	597.05841	195.33856	19.51637	606.23016	16.61049	807.72272	-716.86188	-77.60297	568.94489	-46.85835	74.87144	575.20758	-45.08543	-91.75650	529.30603	836.19788	59.36253	529.31519	840.64526	
2638	26.370	-279.57916	23.01981	-5.76644	219.08641	21.19274	9.81952	-278.52924	28.91227	596.65320	194.37451	20.64300	605.87958	15.36296	806.61700	-717.56372	-79.10880	568.78754	-47.20572	73.65323	575.03174	-45.36696	-92.85287	530.64716	835.76746	57.71582	531.03235	840.12701	
2639	26.380	-280.31253	22.71103	-5.92455	217.87263	20.65226	9.27346	-279.40219	30.02625	596.42041	193.30077	21.98059	605.57959	14.30091	805.44745	-718.44843	-80.45057	568.56439	-47.62140	72.56066	574.81879	-45.51067	-94.39225	531.92120	835.31128	56.76791	532.14722	839.81616	
2640	26.390	-281.40573	22.69194	-6.09696	216.96826	20.91021	9.07124	-280.50052	31.23786	596.18823	192.45026	23.27342	605.40137	13.13529	804.30499	-719.09821	-81.64763	568.19104	-47.98454	71.25437	574.60461	-45.82515	-95.50398	533.22321	835.30701	55.24803	533.46637	839.30109	
2641	26.400	-282.58466	22.70519	-6.51116	216.22406	20.60674	8.79263	-281.41605	32.37729	595.89270	191.45717	24.21320	605.06122	11.73360	803.37891	-720.04150	-83.04824	568.01459	-48.46045	69.82949	574.33374	-46.34978	-97.16307	534.49347	834.53119	53.77525	534.84930	838.94507	
2642	26.410	-283.52930	22.52140	-6.85604	215.13980	20.42341	8.28156	-282.39682	33.64212	595.27203	190.45576	25.38951	604.71442	10.89234	802.43506	-720.42645	-84.23105	567.60962	-48.67838	68.54540	574.00037	-46.87036	-98.10120	535.91431	834.49493	52.88795	536.24939	839.09204	
2643	26.420	-284.15530	22.19930	-7.06940	214.07553	21.03430	8.05661	-283.28265	34.65517	595.18567	189.72612	26.85184	604.57587	9.63429	801.55792	-721.44025	-85.61841	567.09070	-49.07924	67.02105	573.75922	-47.31243	-99.37210	537.05328	834.31299	51.16724	537.54449	838.29016	
2644	26.430	-285.16867	22.17179	-7.55149	213.43732	20.76023	7.86865	-284.16702	35.80223	595.02972	188.68111	27.91829	604.17163	8.50908	801.02795	-721.80652	-86.73818	566.80444	-49.41640	66.11539	573.66718	-47.63425	-100.65637	538.24420	833.71082	50.30110	539.02582	838.51526	
2645	26.440	-286.08102	22.12275	-7.67841	212.50780	20.73824	7.53312	-285.13779	36.96057	594.65613	187.77451	29.06581	603.71893	7.50250	800.31531	-722.72644	-87.81631	566.57465	-49.78320	64.68127	573.44293	-47.74758	-101.93758	539.65900	833.75494	49.19835	540.27515	838.14197	
2646	26.450	-287.00974	22.02415	-7.97219	211.79456	20.76255	7.35736	-285.97415	38.13213	594.12207	187.03432	30.43990	603.61920	6.71001	799.83020	-723.17548	-89.19143	566.33105	-50.26323	63.45337	573.38123	-48.15595	-103.48618	540.96680	833.32953	47.61674	541.69525	837.72083	
2647	26.460	-287.79993	21.94133	-8.26289	211.04788	20.47690	6.84038	-286.58902	39.23498	593.97778	186.20023	31.43393	603.30487	5.37746	799.40387	-723.83185	-90.38427	566.01251	-50.37862	62.32809	573.19922	-48.58772	-104.28793	542.16656	832.67456	46.60682	542.86975	837.29626	
2648	26.470	-288.73761	21.92473	-8.73163	210.12448	20.46415	6.45083	-287.39142	40.25502	593.70081	185.33871	32.52563	602.92273	4.42007	799.13043	-724.40363	-91.65395	565.85010	-50.89924	60.83840	573.10748	-48.94106	-105.60607	543.32141	832.67828	45.09587	544.34729	836.61237	
2649	26.480	-289.12964	21.69159	-8.90175	209.36998	20.58827	6.09097	-288.29504	41.34041	593.30341	184.75513	33.90953	602.68427	3.62682	798.98999	-725.04242	-92.75317	565.52948	-51.34232	59.95738	572.68671	-49.22830	-106.59283	544.68774	832.33209	44.16153	545.59613	836.39008	
2650	26.490	-289.99683	21.52514	-9.19718	208.50644	20.54680	5.93238	-289.15677	42.59589	592.92444	183.86894	35.01618	602.32745	2.54666	799.09564	-725.72412	-93.88068	565.25403	-51.52781	58.89989	572.54779	-49.56091	-108.05505	545.78387	831.85181	43.09190	546.89874	836.23090	
2651	26.500	-290.98703	21.60858	-9.66586	207.95233	20.59466	5.51569	-289.78708	43.59026	592.74011	182.94048	36.03299	601.84918	1.55342	799.18958	-726.30615	-95.16548	565.22119	-52.05631	57.88476	572.42810	-49.81278	-108.64286	547.12610	831.77014	42.09349	548.56116	835.98608	
2652	26.510	-291.64954	21.52419	-9.91615	207.14001	20.60238	5.46802	-290.47607	44.62613	592.43726	182.45306	37.26911	601.63959	0.53861	799.36499	-726.87518	-96.18093	564.84467	-52.34098	56.36320	572.19208	-50.29674	-110.01554	548.53711	831.06140	41.33033	550.13000	836.12036	
2653	26.520	-292.11343	21.25743	-9.90563	206.41315	20.55128	5.27486	-291.09601	45.66096	591.95599	181.93645	38.53854	601.32837	-0.16752	799.58435	-727.42529	-97.38159	564.38019	-52.68362	55.36306	572.13550	-50.98190	-110.96964	549.56702	831.08899	39.85065	551.39221	835.34094	
2654	26.530	-292.94296	21.13910	-10.16533	205.81688	20.28448	4.81629	-291.78043	46.78913	591.65985	181.14877	39.42373	600.82001	-1.16530	800.00507	-727.79858	-98.43256	564.19971	-53.09274	54.06976	572.02362	-51.41081	-112.40717	551.22589	830.40161	38.67053	552.76282	835.12042	
2655	26.540	-293.57684	21.00724	-10.62670	204.98413	20.34504	4.49698	-292.31158	47.83645	591.30017	180.46747	40.48370	600.65955	-1.83859	800.37128	-728.53101	-99.29449	563.93738	-53.30579	53.18077	571.86273	-51.64617	-113.32375	552.42194	830.33148	37.52358	554.15771	834.69519	
2656	26.550	-293.96368	20.94296	-10.90630	204.41170	20.56520	4.25982	-292.82544	48.86560	591.10809	179.96269	41.58130	600.37140	-2.48401	800.88086	-729.07764	-100.52674	563.68774	-53.84540	52.07271	571.78845	-52.03880	-114.40521	553.80261	830.04883	36.57375	555.55048	834.35840	
2657	26.560	-294.60999	20.87207	-11.26387	204.03650	20.44563	3.95574	-293.54504	49.82247	590.81458	179.29135	42.74204	600.07190	-3.02987	801.29437	-729.54858	-101.49145	563.45447	-54.08266	51.22821	571.59564	-52.37375	-115.52111	555.12469	829.42023	35.12262	556.95129	834.02753	
2658	26.570	-295.03793	20.85557	-11.45020	203.32826	20.40701	3.83178	-294.32977	50.83195	590.40533	178.73778	43.70854	599.66711	-3.64897	801.92029	-730.09149	-102.36043	563.17938	-54.48905	49.91213	571.59576	-52.84718	-116.39995	556.29498	829.34137	34.06390	558.51978	833.32849	
2659	26.580	-295.77600	20.24007	-11.07161	202.83789	20.33348	3.51920	-294.68372	51.62545	590.01593	178.40854	44.84671	599.41290	-4.06533	802.35956	-730.71490	-103.39794	562.93939	-55.06676	49.28735	571.19708	-53.19001	-118.13319	557.76428	828.43042	32.66258	559.88342	833.04504	
2660	26.590	-296.24121	20.38082	-11.80145	202.32613	20.42239	3.25054	-295.24036	52.79251	589.65070	177.95828	46.02380	599.06262	-4.61976	803.03052	-731.38452	-104.25304	562.40332	-55.27805	48.51859	570.75024	-53.23759	-118.95525	559.33014	828.40845	31.77056	561.40936	832.72168	
2661	26.600	-296.73376	20.50844	-12.19455	202.14059	20.48392	3.04859	-295.34747	53.48165	589.38245	177.44817	46.75671	598.68817	-5.47666	803.51556	-731.77368	-105.32600	562.07593	-55.65484	47.28817	570.79401	-53.86332	-120.53576	560.54694	827.59363	30.53087	563.15033	832.52301	
2662	26.610	-296.90414	20.36917	-12.45398	202.00237	20.39396	2.92575	-295.97314	54.28769	589.04340	177.13957	47.95138	598.40692	-5.96210	804.08289	-732.33228	-106.16496	561.86920	-56.20222	46.85692	570.42932	-53.73839	-121.01542	561.75159	827.65759	29.39580	564.47931	831.91705	
2663	26.620	-297.42877	20.36630	-12.76690	201.62759	20.32185	2.62208	-296.26080	55.31439	588.45844	176.82455	48.98304	598.07904	-6.17615	804.32654	-732.99255	-106.96497	561.49774	-56.38700	45.44718	570.27155	-54.52284	-122.07724	563.38074	827.32092	28.37635	566.11621	831.72559	
2664	26.630	-297.68365	20.26544	-12.96909	201.39876	20.22622	2.10108	-296.47607	56.16376	588.24902	176.65874	49.82434	597.93024	-6.58603	804.62628	-733.57660	-108.07907	561.19275	-56.84023	44.65505	570.15698	-55.01400	-123.08882	564.56384	827.35339	27.52257	567.64636	831.43481	
